<?xml version="1.0" encoding="utf-8"?>
<!-- Generator: Adobe Illustrator 16.0.0, SVG Export Plug-In . SVG Version: 6.00 Build 0)  -->
<!DOCTYPE svg PUBLIC "-//W3C//DTD SVG 1.1//EN" "http://www.w3.org/Graphics/SVG/1.1/DTD/svg11.dtd">
<svg version="1.1" id="Слой_1" xmlns="http://www.w3.org/2000/svg" xmlns:xlink="http://www.w3.org/1999/xlink" x="0px" y="0px"
	 width="39.926px" height="59.889px" viewBox="29.074 17.889 39.926 59.889" enable-background="new 29.074 17.889 39.926 59.889"
	 xml:space="preserve">
<path fill="#443B37" d="M69,39.515c0-2.728-2.263-4.99-4.991-4.99H50.368L47.374,19.22c-0.066-0.466-0.333-0.865-0.732-1.065
	c-0.399-0.266-0.865-0.333-1.264-0.2l-13.309,3.327c-0.865,0.2-1.464,1.131-1.197,1.997c0.199,0.865,1.131,1.397,1.996,1.197
	l11.645-2.928l2.529,12.976H34.064c-2.728,0-4.99,2.262-4.99,4.99c0,2.196,1.464,4.126,3.46,4.725l3.194,32.007
	c0.066,0.865,0.799,1.53,1.664,1.53h23.291c0.865,0,1.597-0.665,1.663-1.53l3.193-32.007C67.536,43.641,69,41.711,69,39.515z
	 M59.151,74.451H38.922l-2.995-29.945h26.285L59.151,74.451z M64.009,41.179H34.064c-0.931,0-1.663-0.732-1.663-1.664
	c0-0.932,0.732-1.663,1.663-1.663h29.944c0.932,0,1.664,0.731,1.664,1.663C65.673,40.447,64.94,41.179,64.009,41.179z"/>
</svg>
