<?xml version="1.0" encoding="utf-8"?>
<!-- Generator: Adobe Illustrator 16.0.0, SVG Export Plug-In . SVG Version: 6.00 Build 0)  -->
<!DOCTYPE svg PUBLIC "-//W3C//DTD SVG 1.1//EN" "http://www.w3.org/Graphics/SVG/1.1/DTD/svg11.dtd">
<svg version="1.1" id="Layer_1" xmlns="http://www.w3.org/2000/svg" xmlns:xlink="http://www.w3.org/1999/xlink" x="0px" y="0px"
	 width="39.104px" height="37.294px" viewBox="5.279 5.388 39.104 37.294" enable-background="new 5.279 5.388 39.104 37.294"
	 xml:space="preserve">
<g id="facebook">
	<path fill="#FFFFFF" d="M23.929,22.936h4.926V15.45h-4.926v-0.612c0-1.407,0.28-1.752,0.312-1.786
		c0.178-0.191,0.618-0.301,1.21-0.301c0.873,0,1.803,0.115,2.76,0.341l1.168,0.279l1.316-6.786l-0.983-0.305
		c-3.839-1.197-8.247-1.25-10.947,0.216c-1.424,0.77-2.423,1.808-2.972,3.079c-0.514,1.189-0.765,2.871-0.765,5.149v0.727h-3.661
		v7.486h3.661V34.24H5.279v8.441h39.104v-8.442H23.921V22.936H23.929z M13.671,20.635v-2.884h3.662v-3.027
		c0-1.931,0.193-3.356,0.575-4.238c0.344-0.795,0.985-1.439,1.958-1.969c1.905-1.03,5.223-1.054,8.176-0.318l-0.47,2.426
		c-2.081-0.331-4.036-0.188-5.015,0.863c-0.631,0.683-0.928,1.747-0.928,3.356v2.91h4.925v2.884h-4.925v19.736h-4.296V20.637h-3.661
		L13.671,20.635L13.671,20.635z M7.584,36.541h7.448v3.841H7.584V36.541z M42.087,36.541v3.841H23.926v-3.841H42.087z"/>
</g>
</svg>
