<?xml version="1.0" encoding="utf-8"?>
<!-- Generator: Adobe Illustrator 16.0.0, SVG Export Plug-In . SVG Version: 6.00 Build 0)  -->
<!DOCTYPE svg PUBLIC "-//W3C//DTD SVG 1.1//EN" "http://www.w3.org/Graphics/SVG/1.1/DTD/svg11.dtd">
<svg version="1.1" id="Layer_1" xmlns="http://www.w3.org/2000/svg" xmlns:xlink="http://www.w3.org/1999/xlink" x="0px" y="0px"
	 width="37.938px" height="28.442px" viewBox="6.902 9.624 37.938 28.442" enable-background="new 6.902 9.624 37.938 28.442"
	 xml:space="preserve">
<g id="camera_3_">
	<g>
		<path fill="#FFFFFF" d="M41.392,38.065H10.351c-1.9,0-3.448-1.547-3.448-3.45V18.662c0-1.903,1.548-3.449,3.448-3.449h4.876
			c0.636,0,1.151-0.518,1.151-1.15v-0.991c0-1.898,1.545-3.448,3.447-3.448H32.61c1.899,0,3.447,1.549,3.447,3.448v0.991
			c0,0.633,0.517,1.15,1.15,1.15h4.184c1.901,0,3.448,1.546,3.448,3.449v15.954C44.841,36.519,43.294,38.065,41.392,38.065z
			 M10.351,17.51c-0.631,0-1.147,0.516-1.147,1.151v15.954c0,0.638,0.516,1.151,1.147,1.151h31.041c0.637,0,1.15-0.514,1.15-1.151
			V18.662c0-0.636-0.514-1.15-1.15-1.15h-4.183c-1.901,0-3.448-1.547-3.448-3.449v-0.991c0-0.632-0.516-1.15-1.15-1.15H19.826
			c-0.635,0-1.15,0.517-1.15,1.15v0.991c0,1.902-1.547,3.449-3.449,3.449h-4.876V17.51z"/>
	</g>
	<g>
		<path fill="#FFFFFF" d="M25.872,32.749c-4.081,0-7.401-3.321-7.401-7.402s3.32-7.403,7.401-7.403c4.083,0,7.4,3.322,7.4,7.403
			C33.274,29.428,29.955,32.749,25.872,32.749z M25.872,20.246c-2.813,0-5.101,2.29-5.101,5.105c0,2.812,2.289,5.102,5.101,5.102
			c2.815,0,5.102-2.29,5.102-5.102C30.974,22.535,28.686,20.246,25.872,20.246z"/>
	</g>
	<g>
		<rect x="8.053" y="21.958" fill="#FFFFFF" width="11.929" height="2.299"/>
	</g>
	<g>
		<rect x="31.708" y="21.958" fill="#FFFFFF" width="11.983" height="2.299"/>
	</g>
	<g>
		<path fill="#FFFFFF" d="M28.602,15.352h-8.208c-0.635,0-1.149-0.514-1.149-1.15c0-0.633,0.514-1.148,1.149-1.148h8.208
			c0.634,0,1.15,0.515,1.15,1.148C29.751,14.838,29.235,15.352,28.602,15.352z"/>
	</g>
	<g>
		<path fill="#FFFFFF" d="M25.872,29.209c-2.075,0-3.765-1.691-3.765-3.767c0-2.078,1.69-3.769,3.765-3.769
			c2.076,0,3.769,1.691,3.769,3.769C29.641,27.518,27.948,29.209,25.872,29.209z M25.872,23.974c-0.808,0-1.465,0.658-1.465,1.469
			c0,0.809,0.657,1.466,1.465,1.466c0.811,0,1.47-0.657,1.47-1.466C27.342,24.631,26.681,23.974,25.872,23.974z"/>
	</g>
	<g>
		<rect x="10.243" y="23.845" fill="#FFFFFF" width="2.299" height="13.072"/>
	</g>
	<g>
		<rect x="14.374" y="23.939" fill="#FFFFFF" width="2.299" height="13.07"/>
	</g>
	<g>
		<path fill="#FFFFFF" d="M19.622,38.065c-0.636,0-1.151-0.515-1.151-1.148V25.351c0-0.637,0.515-1.15,1.151-1.15
			c0.634,0,1.149,0.514,1.149,1.15v11.566C20.771,37.551,20.256,38.065,19.622,38.065z"/>
	</g>
	<g>
		<path fill="#FFFFFF" d="M23.717,38.065c-0.636,0-1.15-0.515-1.15-1.148v-5.53c0-0.635,0.515-1.149,1.15-1.149
			c0.632,0,1.149,0.515,1.149,1.149v5.53C24.866,37.551,24.35,38.065,23.717,38.065z"/>
	</g>
	<g>
		<rect x="39.155" y="23.797" fill="#FFFFFF" width="2.298" height="13.072"/>
	</g>
	<g>
		<rect x="35.021" y="23.89" fill="#FFFFFF" width="2.302" height="13.074"/>
	</g>
	<g>
		<path fill="#FFFFFF" d="M32.109,38.019c-0.633,0-1.15-0.516-1.15-1.149V25.301c0-0.634,0.518-1.15,1.15-1.15
			c0.636,0,1.15,0.517,1.15,1.15v11.568C33.26,37.503,32.748,38.019,32.109,38.019z"/>
	</g>
	<g>
		<path fill="#FFFFFF" d="M27.98,38.019c-0.635,0-1.149-0.516-1.149-1.149v-5.532c0-0.635,0.515-1.149,1.149-1.149
			s1.149,0.515,1.149,1.149v5.532C29.13,37.503,28.615,38.019,27.98,38.019z"/>
	</g>
</g>
</svg>
