<?xml version="1.0" encoding="utf-8"?>
<!-- Generator: Adobe Illustrator 16.0.0, SVG Export Plug-In . SVG Version: 6.00 Build 0)  -->
<!DOCTYPE svg PUBLIC "-//W3C//DTD SVG 1.1//EN" "http://www.w3.org/Graphics/SVG/1.1/DTD/svg11.dtd">
<svg version="1.1" id="Layer_1" xmlns="http://www.w3.org/2000/svg" xmlns:xlink="http://www.w3.org/1999/xlink" x="0px" y="0px"
	 width="274.333px" height="274.334px" viewBox="0 0 274.333 274.334" enable-background="new 0 0 274.333 274.334"
	 xml:space="preserve">
<g>
	<path d="M-236.763-585.966c-0.83-1.826-0.332-2.656,1.66-2.822c11.62-0.996,26.56-9.13,37.682-9.794
		c8.466-0.498,16.6,2.158,19.588,13.446c2.988,11.122-0.166,20.418-5.81,27.722c-4.814,6.142-13.612,14.442-25.896,19.754
		c3.154,1.494,5.81,3.818,7.968,6.972c3.486,5.146,3.32,14.94-3.818,22.742c-7.304,7.968-19.754,13.778-29.05,15.438
		c-6.308,1.162-10.292,0.996-13.944-0.83c-3.32-1.66-6.308-4.482-8.466-7.636c-2.49-3.652-4.15-6.308-0.332-16.932
		c6.64-18.592,19.256-42.828,31.706-61.42C-232.114-579.658-235.601-583.31-236.763-585.966z M-227.3-532.846
		c-4.648,0.498-7.968,0-10.292-1.162c-4.482,8.632-8.632,17.43-11.122,25.73c-1.826,5.81,0,7.802,5.312,7.138
		c10.624-1.328,24.9-8.134,32.038-16.932c6.142-7.636,6.142-15.106-8.964-15.936C-222.652-533.51-224.977-533.178-227.3-532.846z
		 M-183.974-583.642c-3.32-8.632-19.754-0.996-31.208,2.656c0.332,3.652-0.83,8.632-4.98,16.268
		c-3.32,6.142-8.134,13.944-12.948,22.41C-200.242-549.944-179.824-572.354-183.974-583.642z"/>
	<path d="M-191.777-493.005c-0.664,1.494-1.66,1.826-2.656,0.498c-2.49-3.486-3.818-8.3-0.83-18.26
		c4.15-14.11,32.702-70.384,42.828-84.494c1.494-1.992,2.656-1.826,3.984,0.332c2.158,3.818,2.988,11.786-3.818,24.236
		c-4.316,7.802-9.794,17.596-15.77,28.718c21.746-16.268,44.986-37.018,60.756-54.116c1.162-1.328,2.49-1.162,3.154,0.332
		c0.996,3.652,0.83,9.296-5.146,17.43c-7.47,10.126-30.046,30.378-52.456,46.148c5.312,8.466,9.794,16.102,11.786,20.75
		c3.984,9.462,2.49,15.272,0,18.426c-0.996,1.162-2.158,1.162-2.988-0.332c-6.308-12.284-13.612-24.236-21.746-36.022
		C-180.489-518.238-186.299-505.788-191.777-493.005z"/>
</g>
<text transform="matrix(1 0 0 1 -250.501 -436.8652)" fill="#0C4EA9" font-family="'DINCondensed-Bold'" font-size="55">COFFEE</text>
<text transform="matrix(1 0 0 1 -206.167 -389.166)" fill="#0C4EA9" font-family="'DINCondensed-Bold'" font-size="55">C</text>
<circle fill="none" cx="189.833" cy="-529.167" r="70.666"/>
<text transform="matrix(0.6632 -0.7485 0.7485 0.6632 126.3994 -564.1353)"><tspan x="0" y="0" font-family="'DINCondensed-Bold'" font-size="78">C</tspan><tspan x="27.115" y="-1.072" font-family="'DINCondensed-Bold'" font-size="78" rotate="22.119">O</tspan><tspan x="53.841" y="9.325" font-family="'DINCondensed-Bold'" font-size="78" rotate="43.301">F</tspan><tspan x="72.28" y="25.693" font-family="'DINCondensed-Bold'" font-size="78" rotate="62.926">F</tspan><tspan x="84.173" y="47.241" font-family="'DINCondensed-Bold'" font-size="78" rotate="82.786">E</tspan><tspan x="88.06" y="71.586" font-family="'DINCondensed-Bold'" font-size="78" rotate="102.416">E</tspan></text>
<g>
	<g>
		<path fill="#0C4EA9" d="M-231.763-586.966c-0.83-1.826-0.332-2.656,1.66-2.822c11.62-0.996,26.56-9.13,37.682-9.794
			c8.466-0.498,16.6,2.158,19.588,13.446c2.988,11.122-0.166,20.418-5.81,27.722c-4.814,6.142-13.612,14.442-25.896,19.754
			c3.154,1.494,5.81,3.818,7.968,6.972c3.486,5.146,3.32,14.94-3.818,22.742c-7.304,7.968-19.754,13.778-29.05,15.438
			c-6.308,1.162-10.292,0.996-13.944-0.83c-3.32-1.66-6.308-4.482-8.466-7.636c-2.49-3.652-4.15-6.308-0.332-16.932
			c6.64-18.592,19.256-42.828,31.706-61.42C-227.114-580.658-230.601-584.31-231.763-586.966z M-222.3-533.846
			c-4.648,0.498-7.968,0-10.292-1.162c-4.482,8.632-8.632,17.43-11.122,25.73c-1.826,5.81,0,7.802,5.312,7.138
			c10.624-1.328,24.9-8.134,32.038-16.932c6.142-7.636,6.142-15.106-8.964-15.936C-217.652-534.51-219.977-534.178-222.3-533.846z
			 M-178.974-584.642c-3.32-8.632-19.754-0.996-31.208,2.656c0.332,3.652-0.83,8.632-4.98,16.268
			c-3.32,6.142-8.134,13.944-12.948,22.41C-195.242-550.944-174.824-573.354-178.974-584.642z"/>
		<path fill="#0C4EA9" d="M-186.777-494.005c-0.664,1.494-1.66,1.826-2.656,0.498c-2.49-3.486-3.818-8.3-0.83-18.26
			c4.15-14.11,32.702-70.384,42.828-84.494c1.494-1.992,2.656-1.826,3.984,0.332c2.158,3.818,2.988,11.786-3.818,24.236
			c-4.316,7.802-9.794,17.596-15.77,28.718c21.746-16.268,44.986-37.018,60.756-54.116c1.162-1.328,2.49-1.162,3.154,0.332
			c0.996,3.652,0.83,9.296-5.146,17.43c-7.47,10.126-30.046,30.378-52.456,46.148c5.312,8.466,9.794,16.102,11.786,20.75
			c3.984,9.462,2.49,15.272,0,18.426c-0.996,1.162-2.158,1.162-2.988-0.332c-6.308-12.284-13.612-24.236-21.746-36.022
			C-175.489-519.238-181.299-506.788-186.777-494.005z"/>
	</g>
</g>
<rect x="-182.167" y="-400.166" fill="#0C4EA9" width="14" height="4"/>
<text transform="matrix(1 0 0 1 -184.8652 -402.2896)" fill="#0C4EA9" font-family="'DINCondensed-Bold'" font-size="51">o</text>
<circle fill="none" stroke="#0C4EA9" stroke-width="5" stroke-miterlimit="10" cx="-176.833" cy="-497.833" r="134.667"/>
<rect x="-261.167" y="-486.166" fill="#0C4EA9" width="165" height="4"/>
<text transform="matrix(1 0 0 1 -250.501 -127.8652)" fill="#0C4EA9" font-family="'DINCondensed-Bold'" font-size="55">COFFEE</text>
<text transform="matrix(1 0 0 1 -206.167 -80.166)" fill="#0C4EA9" font-family="'DINCondensed-Bold'" font-size="55">C</text>
<g>
	<g>
		<path fill="#D63737" d="M-231.763-277.966c-0.83-1.826-0.332-2.656,1.66-2.822c11.62-0.996,26.56-9.13,37.682-9.794
			c8.466-0.498,16.6,2.158,19.588,13.446c2.988,11.122-0.166,20.418-5.81,27.722c-4.814,6.142-13.612,14.442-25.896,19.753
			c3.154,1.494,5.81,3.818,7.968,6.973c3.486,5.146,3.32,14.939-3.818,22.742c-7.304,7.968-19.754,13.777-29.05,15.438
			c-6.308,1.162-10.292,0.996-13.944-0.83c-3.32-1.66-6.308-4.481-8.466-7.636c-2.49-3.651-4.15-6.308-0.332-16.933
			c6.64-18.592,19.256-42.828,31.706-61.419C-227.114-271.658-230.601-275.31-231.763-277.966z M-222.3-224.846
			c-4.648,0.498-7.968,0-10.292-1.162c-4.482,8.633-8.632,17.43-11.122,25.73c-1.826,5.81,0,7.802,5.312,7.138
			c10.624-1.328,24.9-8.134,32.038-16.933c6.142-7.635,6.142-15.105-8.964-15.936C-217.652-225.51-219.977-225.178-222.3-224.846z
			 M-178.974-275.642c-3.32-8.632-19.754-0.996-31.208,2.656c0.332,3.652-0.83,8.632-4.98,16.268
			c-3.32,6.142-8.134,13.944-12.948,22.41C-195.242-241.943-174.824-264.354-178.974-275.642z"/>
		<path fill="#D63737" d="M-186.777-185.006c-0.664,1.494-1.66,1.826-2.656,0.498c-2.49-3.486-3.818-8.3-0.83-18.26
			c4.15-14.109,32.702-70.384,42.828-84.494c1.494-1.992,2.656-1.826,3.984,0.332c2.158,3.818,2.988,11.786-3.818,24.236
			c-4.316,7.802-9.794,17.596-15.77,28.718c21.746-16.268,44.986-37.018,60.756-54.116c1.162-1.328,2.49-1.162,3.154,0.332
			c0.996,3.652,0.83,9.296-5.146,17.43c-7.47,10.126-30.046,30.378-52.456,46.148c5.312,8.466,9.794,16.102,11.786,20.75
			c3.984,9.462,2.49,15.271,0,18.426c-0.996,1.162-2.158,1.162-2.988-0.332c-6.308-12.283-13.612-24.236-21.746-36.021
			C-175.489-210.238-181.299-197.787-186.777-185.006z"/>
	</g>
</g>
<rect x="-182.167" y="-91.166" fill="#0C4EA9" width="14" height="4"/>
<text transform="matrix(1 0 0 1 -184.8652 -93.2891)" fill="#0C4EA9" font-family="'DINCondensed-Bold'" font-size="51">o</text>
<circle fill="none" stroke="#D63737" stroke-width="5" stroke-miterlimit="10" cx="-176.833" cy="-188.833" r="134.667"/>
<text transform="matrix(1 0 0 1 -255.501 192.1348)" fill="#D63737" font-family="'DINCondensed-Bold'" font-size="55">COFFEE</text>
<text transform="matrix(1 0 0 1 -211.167 241.834)" fill="#D63737" font-family="'DINCondensed-Bold'" font-size="55">C</text>
<g>
	<g>
		<path fill="#D63737" d="M-236.763,48.034c-0.83-1.825-0.332-2.655,1.66-2.821c11.62-0.996,26.56-9.131,37.682-9.795
			c8.466-0.498,16.6,2.158,19.588,13.446c2.988,11.122-0.166,20.418-5.81,27.722c-4.814,6.143-13.612,14.442-25.896,19.754
			c3.154,1.494,5.81,3.818,7.968,6.973c3.486,5.146,3.32,14.939-3.818,22.742c-7.304,7.968-19.754,13.777-29.05,15.438
			c-6.308,1.162-10.292,0.996-13.944-0.83c-3.32-1.66-6.308-4.481-8.466-7.636c-2.49-3.651-4.15-6.308-0.332-16.933
			c6.64-18.592,19.256-42.828,31.706-61.42C-232.114,54.342-235.601,50.69-236.763,48.034z M-227.3,101.154
			c-4.648,0.498-7.968,0-10.292-1.162c-4.482,8.633-8.632,17.43-11.122,25.73c-1.826,5.81,0,7.802,5.312,7.138
			c10.624-1.328,24.9-8.134,32.038-16.933c6.142-7.635,6.142-15.105-8.964-15.936C-222.652,100.49-224.977,100.822-227.3,101.154z
			 M-183.974,50.358c-3.32-8.632-19.754-0.996-31.208,2.655c0.332,3.652-0.83,8.633-4.98,16.269
			c-3.32,6.142-8.134,13.944-12.948,22.41C-200.242,84.057-179.824,61.646-183.974,50.358z"/>
		<path fill="#D63737" d="M-191.777,140.994c-0.664,1.494-1.66,1.826-2.656,0.498c-2.49-3.486-3.818-8.3-0.83-18.26
			c4.15-14.109,32.702-70.385,42.828-84.494c1.494-1.992,2.656-1.826,3.984,0.332c2.158,3.818,2.988,11.786-3.818,24.236
			c-4.316,7.802-9.794,17.596-15.77,28.718c21.746-16.269,44.986-37.019,60.756-54.116c1.162-1.328,2.49-1.162,3.154,0.332
			c0.996,3.652,0.83,9.296-5.146,17.43c-7.47,10.127-30.046,30.379-52.456,46.148c5.312,8.466,9.794,16.102,11.786,20.75
			c3.984,9.462,2.49,15.271,0,18.426c-0.996,1.162-2.158,1.162-2.988-0.332c-6.308-12.283-13.612-24.236-21.746-36.021
			C-180.489,115.762-186.299,128.213-191.777,140.994z"/>
	</g>
</g>
<rect x="-187.167" y="230.834" fill="#D63737" width="14" height="4"/>
<text transform="matrix(1 0 0 1 -189.8652 228.7109)" fill="#D63737" font-family="'DINCondensed-Bold'" font-size="51">o</text>
<circle fill="none" stroke="#D63737" stroke-width="5" stroke-miterlimit="10" cx="-181.833" cy="137.167" r="134.667"/>
<text transform="matrix(1 0 0 1 63.499 192.1348)" fill="#FFFFFF" font-family="'DINCondensed-Bold'" font-size="55">COFFEE</text>
<text transform="matrix(1 0 0 1 107.833 241.834)" fill="#FFFFFF" font-family="'DINCondensed-Bold'" font-size="55">C</text>
<g>
	<g>
		<path fill="#FFFFFF" d="M82.237,48.034c-0.83-1.825-0.332-2.655,1.66-2.821c11.62-0.996,26.561-9.131,37.682-9.795
			c8.467-0.498,16.601,2.158,19.588,13.446c2.988,11.122-0.166,20.418-5.81,27.722c-4.813,6.143-13.612,14.442-25.896,19.754
			c3.154,1.494,5.81,3.818,7.968,6.973c3.485,5.146,3.319,14.939-3.817,22.742c-7.305,7.968-19.755,13.777-29.051,15.438
			c-6.309,1.162-10.292,0.996-13.943-0.83c-3.32-1.66-6.309-4.481-8.467-7.636c-2.49-3.651-4.15-6.308-0.332-16.933
			c6.641-18.592,19.256-42.828,31.706-61.42C86.886,54.342,83.399,50.69,82.237,48.034z M91.7,101.154
			c-4.648,0.498-7.969,0-10.293-1.162c-4.482,8.633-8.632,17.43-11.121,25.73c-1.826,5.81,0,7.802,5.312,7.138
			c10.624-1.328,24.899-8.134,32.038-16.933c6.143-7.635,6.143-15.105-8.965-15.936C96.348,100.49,94.023,100.822,91.7,101.154z
			 M135.026,50.358c-3.32-8.632-19.755-0.996-31.209,2.655c0.332,3.652-0.83,8.633-4.98,16.269
			c-3.319,6.142-8.133,13.944-12.947,22.41C118.758,84.057,139.176,61.646,135.026,50.358z"/>
		<path fill="#FFFFFF" d="M127.223,140.994c-0.664,1.494-1.659,1.826-2.655,0.498c-2.49-3.486-3.818-8.3-0.83-18.26
			c4.149-14.109,32.701-70.385,42.828-84.494c1.494-1.992,2.655-1.826,3.983,0.332c2.158,3.818,2.988,11.786-3.817,24.236
			c-4.316,7.802-9.795,17.596-15.771,28.718c21.746-16.269,44.985-37.019,60.756-54.116c1.162-1.328,2.49-1.162,3.154,0.332
			c0.996,3.652,0.83,9.296-5.146,17.43c-7.471,10.127-30.047,30.379-52.457,46.148c5.312,8.466,9.795,16.102,11.786,20.75
			c3.984,9.462,2.49,15.271,0,18.426c-0.995,1.162-2.157,1.162-2.987-0.332c-6.309-12.283-13.612-24.236-21.746-36.021
			C138.511,115.762,132.7,128.213,127.223,140.994z"/>
	</g>
</g>
<rect x="131.833" y="230.834" fill="#FFFFFF" width="14" height="4"/>
<text transform="matrix(1 0 0 1 129.1348 228.7109)" fill="#FFFFFF" font-family="'DINCondensed-Bold'" font-size="51">o</text>
<circle fill="none" stroke="#FFFFFF" stroke-width="5" stroke-miterlimit="10" cx="137.167" cy="137.167" r="134.667"/>
<text transform="matrix(1 0 0 1 110.167 -408.4995)"><tspan x="0" y="0" font-family="'SignPainter-HouseScript'" font-size="166" letter-spacing="-9">B</tspan><tspan x="65.404" y="0" font-family="'SignPainter-HouseScript'" font-size="166">K</tspan></text>
<text transform="matrix(1 0 0 1 120.499 -350.8652)" fill="#0CBFA9" stroke="#000000" stroke-miterlimit="10" font-family="'DINCondensed-Bold'" font-size="55">COFFEE</text>
<text transform="matrix(1 0 0 1 164.833 -303.166)" fill="#0CBFA9" stroke="#000000" stroke-miterlimit="10" font-family="'DINCondensed-Bold'" font-size="55">C</text>
<text transform="matrix(1 0 0 1 115.167 -409.4995)"><tspan x="0" y="0" fill="#0CBFA9" font-family="'SignPainter-HouseScript'" font-size="166" letter-spacing="-9">B</tspan><tspan x="65.404" y="0" fill="#0CBFA9" font-family="'SignPainter-HouseScript'" font-size="166">K</tspan></text>
<rect x="188.833" y="-314.166" fill="#0CBFA9" stroke="#000000" stroke-miterlimit="10" width="14" height="4"/>
<text transform="matrix(1 0 0 1 186.1348 -316.2896)" fill="#0CBFA9" stroke="#000000" stroke-miterlimit="10" font-family="'DINCondensed-Bold'" font-size="51">o</text>
<circle fill="none" stroke="#000000" stroke-width="4" stroke-miterlimit="10" cx="194.167" cy="-411.833" r="134.667"/>
<rect x="109.833" y="-400.166" width="165" height="4"/>
<rect x="-16.167" y="-599.166" fill="#0CBFA9" width="22" height="29"/>
</svg>
