<?xml version="1.0" encoding="utf-8"?>
<!-- Generator: Adobe Illustrator 16.0.0, SVG Export Plug-In . SVG Version: 6.00 Build 0)  -->
<!DOCTYPE svg PUBLIC "-//W3C//DTD SVG 1.1//EN" "http://www.w3.org/Graphics/SVG/1.1/DTD/svg11.dtd">
<svg version="1.1" id="Layer_1" xmlns="http://www.w3.org/2000/svg" xmlns:xlink="http://www.w3.org/1999/xlink" x="0px" y="0px"
	 width="38.075px" height="31.858px" viewBox="7.014 7.2 38.075 31.858" enable-background="new 7.014 7.2 38.075 31.858"
	 xml:space="preserve">
<g id="twitter">
	<path fill="#FFFFFF" d="M44.064,10.844c0.283-0.956-0.04-1.99-0.823-2.612c-0.444-0.355-0.981-0.534-1.527-0.534
		c-0.431,0-0.86,0.113-1.247,0.343c-0.768,0.45-1.57,0.812-2.409,1.067C36.455,7.882,34.469,7.2,32.426,7.2
		c-4.682,0-8.56,3.492-9.17,8.007c-3.733-0.798-7.133-2.854-9.583-5.859c-0.466-0.576-1.167-0.904-1.898-0.904
		c-0.062,0-0.126,0.004-0.192,0.008c-0.802,0.063-1.518,0.516-1.923,1.208c-0.823,1.41-1.256,3.018-1.256,4.656
		c0,1.106,0.196,2.182,0.56,3.188c-0.391,0.444-0.617,1.02-0.617,1.628c0,2.427,0.916,4.659,2.442,6.335
		c-0.094,0.418-0.08,0.861,0.058,1.284c0.529,1.654,1.495,3.078,2.745,4.165c-0.812,0.184-1.652,0.278-2.504,0.278
		c-0.442,0-0.889-0.029-1.339-0.08c-0.095-0.012-0.19-0.018-0.287-0.018c-1.025,0-1.954,0.641-2.302,1.629
		c-0.386,1.071,0.022,2.271,0.98,2.888c3.519,2.253,7.584,3.444,11.757,3.444c13.531,0,21.663-10.891,21.809-21.521
		c1.102-0.938,2.069-2.017,2.891-3.222c0.31-0.41,0.494-0.919,0.494-1.477C45.089,12.019,44.686,11.291,44.064,10.844z
		 M39.235,16.363c0.016,0.292,0.021,0.585,0.021,0.88c0,8.993-6.844,19.361-19.36,19.361c-3.842,0-7.42-1.126-10.433-3.057
		c0.53,0.059,1.074,0.096,1.623,0.096c3.188,0,6.122-1.089,8.452-2.915c-2.98-0.053-5.492-2.022-6.359-4.726
		c0.416,0.08,0.843,0.123,1.278,0.123c0.623,0,1.224-0.084,1.793-0.239c-3.113-0.628-5.46-3.375-5.46-6.675c0-0.029,0-0.056,0-0.084
		c0.918,0.508,1.969,0.814,3.083,0.849c-1.826-1.221-3.025-3.305-3.025-5.665c0-1.247,0.335-2.414,0.921-3.419
		c3.354,4.117,8.37,6.825,14.025,7.108c-0.117-0.496-0.174-1.018-0.174-1.551c0-3.754,3.045-6.801,6.802-6.801
		c1.959,0,3.729,0.826,4.97,2.146c1.548-0.303,3.007-0.87,4.32-1.65c-0.509,1.588-1.589,2.921-2.991,3.764
		c1.375-0.163,2.686-0.528,3.906-1.072C41.719,14.206,40.566,15.403,39.235,16.363z"/>
</g>
</svg>
